<svg width="95" height="57" viewBox="0 0 95 57" fill="none" xmlns="http://www.w3.org/2000/svg">
<mask id="mask0_101_42" style="mask-type:luminance" maskUnits="userSpaceOnUse" x="0" y="0" width="95" height="57">
<path d="M94.6302 0.123291H0.369629V56.8768H94.6302V0.123291Z" fill="white"/>
</mask>
<g mask="url(#mask0_101_42)">
<path d="M88.1571 19.1484L75.6547 6.64604C75.647 6.63831 75.6387 6.63118 75.631 6.62346C75.6232 6.61573 75.614 6.60533 75.6051 6.59642C71.9567 2.94839 67.1469 0.691575 62.0094 0.217022C56.8718 -0.257532 51.7304 1.08008 47.4753 3.99808C43.2202 1.08008 38.0787 -0.257532 32.9412 0.217022C27.8035 0.691575 22.9939 2.94839 19.3454 6.59642L6.84307 19.0985C2.9478 22.9947 0.648174 28.2054 0.394956 33.7089C0.141739 39.2125 1.95318 44.6124 5.47422 48.85C8.99528 53.0873 13.972 55.8571 19.4289 56.6159C24.8859 57.3748 30.4296 56.0683 34.9732 52.9524C38.6522 55.4753 43.0083 56.826 47.469 56.8275C51.93 56.8287 56.2868 55.4803 59.9672 52.9595C64.5055 56.0948 70.0522 57.4194 75.5175 56.6736C80.9827 55.9275 85.9715 53.1651 89.504 48.9285C93.0362 44.6918 94.8563 39.2874 94.6073 33.7773C94.3581 28.2668 92.0574 23.0489 88.1571 19.1484ZM28.1842 46.6917C25.3619 48.0398 22.1538 48.3464 19.1271 47.5578C16.1004 46.7696 13.4498 44.9363 11.6439 42.3825C9.83804 39.8288 8.99302 36.7191 9.25826 33.6026C9.52347 30.486 10.8819 27.5636 13.0934 25.3517L25.5954 12.8494C27.5359 10.9114 30.0288 9.62167 32.7317 9.1573C35.4346 8.69292 38.2151 9.07666 40.6911 10.2558L31.8475 19.0985C28.4561 22.4723 26.2605 26.8623 25.5954 31.5996C25.449 32.6354 25.3751 33.6801 25.3743 34.7263C25.3655 38.8619 26.5253 42.9159 28.72 46.4213C28.5429 46.5158 28.3643 46.6056 28.1842 46.6908V46.6917ZM56.8519 44.1038C54.3623 46.577 50.9938 47.9622 47.4845 47.9566C43.9752 47.9506 40.6114 46.5539 38.1299 44.0726C35.6486 41.591 34.2518 38.2273 34.2459 34.7179C34.2402 31.2086 35.6254 27.8403 38.0987 25.3505L47.4753 15.9739L56.8519 25.3505C59.3344 27.8393 60.7285 31.211 60.7285 34.7263C60.7285 38.2412 59.3344 41.613 56.8519 44.1017V44.1038ZM81.9059 44.1534C79.9562 46.0981 77.4503 47.3885 74.7348 47.8463C72.0194 48.3042 69.2289 47.9067 66.7494 46.7087C66.5711 46.6228 66.3946 46.5328 66.2202 46.4386C68.4216 42.9292 69.5851 38.8688 69.5762 34.7263C69.5753 33.6801 69.5016 32.6354 69.3551 31.5996C68.6902 26.8623 66.4944 22.4723 63.1031 19.0985L54.3136 10.3093L54.2639 10.2597C56.7387 9.08105 59.5177 8.69705 62.2194 9.16033C64.9212 9.62363 67.4131 10.9115 69.3539 12.8473C69.3629 12.8562 69.3712 12.8657 69.3798 12.8746C69.3884 12.8835 69.3958 12.8895 69.4036 12.8972L81.8474 25.341L81.9068 25.4005C84.3934 27.8874 85.7905 31.2603 85.7905 34.7771C85.7905 38.2938 84.3934 41.6668 81.9068 44.1537L81.9059 44.1534Z" fill="url(#paint0_linear_101_42)"/>
</g>
<defs>
<linearGradient id="paint0_linear_101_42" x1="26.1983" y1="56.2523" x2="47.7507" y2="-3.67911" gradientUnits="userSpaceOnUse">
<stop stop-color="#666FCF"/>
<stop offset="1" stop-color="#FF2539"/>
</linearGradient>
</defs>
</svg>
